<svg width="93" height="120" viewBox="0 0 93 120" fill="none" xmlns="http://www.w3.org/2000/svg">
<g clip-path="url(#clip0)">
<path d="M46.537 42.6296C47.3549 42.5886 47.9753 42.4476 48.3317 42.3733C51.0315 41.8195 53.7159 40.5785 53.7159 40.5785C56.8976 39.1069 59.9538 38.3685 61.4075 38.0147C63.6586 37.4685 67.3993 36.5609 71.9194 37.2455C73.4167 37.4711 78.965 38.389 83.7133 42.886C87.3335 46.3165 88.6872 50.1239 90.123 54.1671C90.6537 55.6619 91.5921 58.5847 92.1741 62.8843C93.6791 74.0141 91.2639 83.1082 90.123 87.2412C89.641 88.9847 87.7617 95.5277 83.4569 103.137C81.4058 106.763 79.5521 109.983 76.0216 113.393C73.0629 116.252 68.5787 120.556 62.9458 120.315C59.6538 120.174 56.5361 118.777 56.5361 118.777C54.7081 117.957 54.4312 117.444 52.1775 116.469C50.2751 115.646 48.6471 114.944 46.537 114.931C44.8807 114.921 43.727 115.359 41.4092 116.213C38.2915 117.359 37.9685 118.049 35.2559 119.033C33.4971 119.672 31.6562 120.338 29.359 120.315C26.1105 120.282 23.7159 118.882 21.4109 117.495C18.0676 115.485 15.8652 113.18 14.4884 111.598C8.41973 104.627 5.73021 97.1583 4.23291 92.8818C1.96643 86.4105 1.05626 80.87 0.64347 77.2421C0.0845435 72.3271 -0.471819 67.4378 0.64347 61.346C1.43571 57.013 3.72013 44.5167 13.4629 39.553C17.5625 37.4634 21.8109 37.307 23.462 37.2455C25.8208 37.1583 30.5871 36.9942 35.5123 39.2966C35.5123 39.2966 40.5247 41.64 43.7167 42.3733C44.9961 42.6681 46.0191 42.6553 46.537 42.6296Z" fill="#F33535"/>
<path d="M46.2805 42.3143C47.6471 42.0554 49.0162 41.7964 50.3828 41.5349C52.7441 44.9885 54.2696 48.1292 55.2541 50.5085C56.7284 54.0697 57.354 56.9541 57.5616 57.9438C58.6769 63.2228 58.4744 67.5045 58.3308 69.7376C57.436 83.7134 54.2183 90.3589 53.9722 101.273C53.885 105.122 54.1337 110.957 56.0233 118.195C54.5798 117.441 53.1389 116.69 51.6955 115.936C50.9827 114.472 49.9777 112.344 48.8444 109.734C47.4189 106.447 46.6985 104.791 46.0242 102.555C45.4678 100.714 44.8037 98.0198 44.4858 94.6073C42.8962 95.6072 40.6067 97.0327 37.8197 98.7095C33.315 101.42 31.0203 102.796 28.8461 103.837C23.7055 106.296 17.665 108.17 17.3087 107.427C17.0882 106.97 19.0649 105.622 20.1289 104.863C21.9262 103.581 41.5553 89.5667 39.3581 78.7112C38.9248 76.5678 37.7505 75.1013 36.5378 73.5835C34.6046 71.1657 32.0638 69.3556 24.4875 66.4046C16.7138 63.3766 12.5988 62.6357 12.6937 62.046C12.8244 61.2358 20.734 61.764 25.5131 62.3024C29.6256 62.7664 34.8046 63.3484 38.0761 64.0971C39.0068 64.3099 39.8067 64.4099 41.4092 64.6099C43.1116 64.8227 43.8756 64.8432 44.7422 64.6099C44.7422 64.6099 45.8678 64.3073 46.7933 63.5843C48.0368 62.6126 49.029 60.2231 47.8189 51.0213C47.5394 48.8881 47.0753 45.8935 46.2805 42.3143Z" fill="white"/>
<path d="M38.9734 61.7896C42.5842 61.7896 45.5113 58.8625 45.5113 55.2517C45.5113 51.6409 42.5842 48.7138 38.9734 48.7138C35.3626 48.7138 32.4355 51.6409 32.4355 55.2517C32.4355 58.8625 35.3626 61.7896 38.9734 61.7896Z" fill="white"/>
<path d="M46.5369 32.0485C45.3447 30.723 40.3349 24.8594 40.3836 15.8961C40.4298 7.09426 45.3216 1.35117 46.5369 0C47.765 1.45116 52.7672 7.69421 52.4339 16.9216C52.1416 25.0363 47.9035 30.4384 46.5369 32.0485Z" fill="#0CBA70"/>
<path d="M48.4315 37.2763C48.7699 35.5251 50.421 27.9925 57.5973 22.6211C64.6429 17.3472 72.173 17.7805 73.9857 17.9343C73.5703 19.7906 71.6115 27.5463 64.0506 32.8485C57.4051 37.5122 50.539 37.3942 48.4315 37.2763Z" fill="#0CBA70"/>
<path d="M44.2679 37.3173C42.4886 37.4353 34.7841 37.7455 27.7693 32.1639C20.8827 26.6849 19.3931 19.2907 19.0829 17.4985C20.9853 17.4293 28.982 17.36 36.0276 23.3288C42.2193 28.577 43.8474 35.2483 44.2679 37.3173Z" fill="#0CBA70"/>
</g>
<defs>
<clipPath id="clip0">
<rect width="92.6536" height="120" fill="white"/>
</clipPath>
</defs>
</svg>
