<svg width="121" height="48" viewBox="0 0 121 48" fill="none" xmlns="http://www.w3.org/2000/svg">
<path d="M49 37.17V22.73C49 22.26 49.16 21.87 49.47 21.56C49.81 21.22 50.22 21.03 50.69 21H52.47L59.03 32.11V21H62.31V37.17H58.89L52.28 26.06V37.17H49Z" fill="white"/>
<path d="M74.8002 24.7V32.01C74.8002 34.23 74.2202 35.68 73.0702 36.37C71.9202 37.06 70.6502 37.4 69.2702 37.4C67.9302 37.34 66.6902 36.96 65.5702 36.27C64.4802 35.58 63.9302 34.16 63.9302 32V24.7H67.2102V32.67C67.2102 33.42 67.4302 33.97 67.8702 34.31C68.3102 34.65 68.8102 34.83 69.3702 34.83C69.9302 34.83 70.4302 34.66 70.8702 34.31C71.3402 33.97 71.5702 33.42 71.5702 32.67V26.3C71.5702 25.86 71.7102 25.49 71.9902 25.17C72.3002 24.86 72.6902 24.7 73.1602 24.7H74.8002Z" fill="white"/>
<path d="M81.8099 37.17C80.7799 37.23 79.6499 37.22 78.4299 37.12C77.2399 37.03 76.6499 36.26 76.6499 34.82V21.05H78.3399C78.7499 21.05 79.1099 21.21 79.4199 21.52C79.7299 21.83 79.8899 22.21 79.8899 22.65V24.76H81.8099V25.42C81.8099 25.89 81.6499 26.28 81.3399 26.59C81.0299 26.86 80.6499 27 80.2199 27H79.8899V33.94C79.8899 34.47 80.1999 34.74 80.8299 34.74H81.8099V37.17Z" fill="white"/>
<path d="M83.0498 37.17V31.12C83.0498 29.9 83.2198 28.89 83.5698 28.07C83.9498 27.23 84.4498 26.55 85.0698 26.05C85.6598 25.58 86.3498 25.24 87.1298 25.02C87.9398 24.8 88.7698 24.69 89.6098 24.69C89.6698 24.69 89.7498 24.69 89.8398 24.69C89.9298 24.69 90.0098 24.69 90.0698 24.69V28.02H88.9998C88.0898 28.02 87.4198 28.24 86.9798 28.68C86.5398 29.12 86.3198 29.81 86.3198 30.74V37.16H83.0498V37.17Z" fill="white"/>
<path d="M91.6499 21.05H93.3399C93.7799 21.05 94.1499 21.21 94.4699 21.52C94.7899 21.83 94.9399 22.21 94.9399 22.65V23.63H91.6599V21.05H91.6499ZM91.6499 24.7H93.3399C93.7799 24.7 94.1499 24.86 94.4699 25.17C94.7899 25.48 94.9399 25.86 94.9399 26.3V37.18H91.6599V24.7H91.6499Z" fill="white"/>
<path d="M99.4998 31.03C99.4998 33.19 100.13 34.39 101.38 34.64C102.63 34.86 103.55 34.56 104.15 33.75C104.43 33.41 104.63 32.87 104.76 32.16C104.89 31.41 104.89 30.68 104.76 29.96C104.66 29.23 104.41 28.59 104 28.03C103.59 27.47 103 27.19 102.22 27.19C101.16 27.19 100.44 27.58 100.06 28.36C99.6798 29.14 99.4998 30.03 99.4998 31.03ZM104.85 36.42V35.62C104.29 36.5 103.52 37.04 102.55 37.26C101.61 37.48 100.67 37.4 99.7398 37.03C98.8098 36.66 97.9898 35.97 97.2998 34.97C96.6398 33.94 96.3198 32.59 96.3198 30.94C96.3198 29 96.7598 27.44 97.6298 26.25C98.5398 25.03 99.9698 24.42 101.94 24.42C103.44 24.42 104.83 24.83 106.11 25.64C107.39 26.45 108.03 27.95 108.03 30.14V36.75C108.03 38.94 107.39 40.42 106.11 41.2C104.83 42.01 103.44 42.42 101.94 42.42C99.0598 42.42 97.2798 41.08 96.5998 38.39H100.02C100.27 38.83 100.65 39.16 101.15 39.37C101.68 39.62 102.2 39.68 102.7 39.56C103.23 39.47 103.7 39.17 104.11 38.67C104.53 38.17 104.78 37.42 104.85 36.42Z" fill="white"/>
<path d="M113.35 27.8C112.69 28.52 112.4 29.6 112.46 31.03C112.52 32.44 112.79 33.42 113.26 33.98C113.45 34.23 113.78 34.45 114.24 34.64C114.71 34.8 115.18 34.81 115.65 34.69C116.15 34.53 116.59 34.17 116.96 33.61C117.33 33.05 117.54 32.14 117.57 30.89C117.57 29.76 117.38 28.92 117.01 28.36C116.67 27.8 116.26 27.44 115.79 27.28C115.32 27.12 114.85 27.12 114.38 27.28C113.92 27.41 113.57 27.58 113.35 27.8ZM111.1 36.05C110.44 35.49 109.97 34.74 109.69 33.8C109.41 32.83 109.27 31.83 109.27 30.8C109.27 29.96 109.38 29.11 109.6 28.27C109.85 27.43 110.23 26.72 110.73 26.16C111.54 25.22 112.59 24.68 113.87 24.52C115.15 24.33 116.31 24.43 117.34 24.8C118.53 25.27 119.4 26.08 119.97 27.24C120.5 28.27 120.77 29.47 120.77 30.85C120.77 31.85 120.66 32.71 120.44 33.43C120.22 34.15 119.94 34.76 119.6 35.26C118.85 36.29 117.9 36.93 116.74 37.18C115.71 37.46 114.66 37.48 113.6 37.23C112.56 37 111.73 36.61 111.1 36.05Z" fill="white"/>
<g clip-path="url(#clip0)">
<path d="M18.7844 15.216C18.7641 14.2348 18.8226 12.9394 19.1317 11.4554C19.3946 10.1953 19.7171 8.64651 20.8107 7.00052C21.282 6.29121 22.1087 5.24402 23.4739 4.28131C24.6712 3.44067 25.7122 2.91997 26.4266 2.6035C27.7351 2.02436 28.4715 1.8994 29.9583 1.21497C30.9604 0.753279 31.7357 0.298534 32.2162 0C32.2561 0.706994 32.266 1.63615 32.1583 2.71921C32.0448 3.86128 31.848 4.70307 31.8109 4.85986C31.551 5.95912 31.016 7.60569 29.8425 9.31474C28.1762 11.7412 26.0995 13.0146 24.9792 13.596C23.9371 14.078 22.895 14.5605 21.8528 15.0424C22.0231 14.1706 22.3392 13.0343 22.9529 11.8025C23.7941 10.1143 24.8501 8.93926 25.6161 8.21548C24.8032 8.63262 23.8856 9.19382 22.9529 9.95115C20.7326 11.7545 19.4722 13.8188 18.7844 15.216Z" fill="url(#paint0_linear)"/>
<path d="M15.6 14.6375C15.2097 14.5646 14.7263 14.4298 14.2105 14.1746C13.0572 13.6036 12.3885 12.7479 12.0683 12.2654C11.9027 11.9402 11.7319 11.5335 11.6051 11.0504C11.3776 10.1866 11.3828 9.43161 11.4315 8.90975C11.9352 8.91207 12.9188 8.98554 13.9789 9.54616C14.8595 10.0119 15.417 10.6153 15.7158 10.9926C15.9763 11.3218 16.2837 11.7834 16.5263 12.3811C16.9414 13.4051 16.9628 14.3256 16.9316 14.8689C16.3578 14.5345 15.9659 14.1914 15.7158 13.9432C15.4709 13.7002 15.347 13.5324 14.9052 13.0175C14.5376 12.5888 14.2319 12.2486 14.0368 12.034C14.1711 12.373 14.3413 12.7444 14.5578 13.1332C14.8977 13.7436 15.2653 14.2429 15.6 14.6375Z" fill="url(#paint1_linear)"/>
<path d="M21.6098 47.4382C20.2329 48.1851 18.583 48.1874 17.2037 47.4446C9.37797 43.2294 0.0115826 33.9828 1.20199e-05 26.2913C-0.00866592 20.4956 4.68263 15.7904 10.4783 15.7817C14.2203 15.7759 17.5052 17.7313 19.3674 20.6761C21.2211 17.7256 24.5002 15.7609 28.2421 15.7551C34.0378 15.7464 38.743 20.4377 38.7517 26.2334C38.7626 33.9249 29.424 43.1999 21.6098 47.4382Z" fill="#F33535"/>
<path d="M21.1445 18.5285C21.3568 18.3359 21.5686 18.1427 21.7809 17.95C23.2868 19.8129 24.1257 21.5369 24.6001 22.7258C25.1063 23.9945 25.3128 24.9433 25.3643 25.1891C25.7346 26.9496 25.6663 28.3618 25.6189 29.0965C25.4233 32.1512 24.2489 35.8786 24.1748 39.5442C24.1488 40.8441 24.2443 42.8592 24.9622 45.3723C24.692 45.5459 24.4225 45.7194 24.1523 45.893C23.6779 44.9604 23.2937 44.1533 23.001 43.5175C22.8477 43.1855 22.684 42.8262 22.4763 42.3472C22.0036 41.2584 21.7658 40.7093 21.542 39.9688C21.358 39.3591 21.1376 38.4664 21.0323 37.3354C20.5058 37.6663 19.7468 38.1389 18.824 38.6943C17.332 39.5928 16.5712 40.0487 15.851 40.3929C14.1484 41.2075 12.1466 41.8282 12.0286 41.5823C11.9557 41.4308 12.61 40.9841 12.9629 40.7331C13.5588 40.3084 20.0615 35.6657 19.3337 32.069C19.1902 31.3586 18.8015 30.8732 18.3994 30.3705C17.759 29.5692 16.9172 28.9698 14.407 27.9921C11.8313 26.989 10.4677 26.7437 10.4996 26.5481C10.543 26.2797 13.1637 26.455 14.7466 26.6332C16.109 26.7865 17.8243 26.9797 18.9085 27.2279C19.2163 27.2985 19.4818 27.3314 20.0129 27.398C20.577 27.4686 20.8304 27.4749 21.1173 27.398C21.3019 27.3505 21.5587 27.258 21.7971 27.0584C22.1685 26.7471 22.6822 26.0188 22.2437 22.9838C22.0817 21.8643 21.7751 20.3243 21.1445 18.5285Z" fill="white"/>
<path d="M19.2061 26.4636C20.4023 26.4636 21.3721 25.4939 21.3721 24.2976C21.3721 23.1014 20.4023 22.1316 19.2061 22.1316C18.0098 22.1316 17.04 23.1014 17.04 24.2976C17.04 25.4939 18.0098 26.4636 19.2061 26.4636Z" fill="white"/>
</g>
<defs>
<linearGradient id="paint0_linear" x1="32.2051" y1="1.40233" x2="21.3101" y2="12.8367" gradientUnits="userSpaceOnUse">
<stop stop-color="#0CBA70"/>
<stop offset="0.440625" stop-color="#0CB971"/>
<stop offset="1" stop-color="#05A87F"/>
</linearGradient>
<linearGradient id="paint1_linear" x1="14.1728" y1="8.90975" x2="14.1728" y2="14.8689" gradientUnits="userSpaceOnUse">
<stop stop-color="#05A87F"/>
<stop offset="0.576042" stop-color="#0CBA70"/>
</linearGradient>
<clipPath id="clip0">
<rect width="38.7511" height="48" fill="white"/>
</clipPath>
</defs>
</svg>
