<svg width="12" height="12" viewBox="0 0 12 12" fill="none" xmlns="http://www.w3.org/2000/svg">
<path d="M10.9453 0H1.05469C0.473203 0 0 0.473203 0 1.05469V10.9453C0 11.5268 0.473203 12 1.05469 12H10.9453C11.5268 12 12 11.5268 12 10.9453V1.05469C12 0.473203 11.5268 0 10.9453 0ZM10.1248 3.29695L8.26875 5.76586C8.15227 5.92102 7.93195 5.95242 7.7768 5.83594C7.26023 5.44852 6.6457 5.24367 5.99977 5.24367C5.35383 5.24367 4.7393 5.44852 4.22273 5.83594C4.15945 5.88328 4.08539 5.90625 4.01203 5.90625C3.90539 5.90625 3.79992 5.85773 3.73078 5.76586L1.87523 3.29695C1.81922 3.22242 1.79508 3.12844 1.8082 3.03609C1.82133 2.94375 1.87078 2.86031 1.94531 2.8043C3.12398 1.92047 4.52602 1.45312 6 1.45312C7.47398 1.45312 8.87602 1.92047 10.0547 2.8043C10.1292 2.86031 10.1787 2.94375 10.1918 3.03609C10.2049 3.12844 10.1808 3.22219 10.1248 3.29695Z" fill="#0CBA70"/>
</svg>
