<svg width="36" height="36" viewBox="0 0 36 36" fill="none" xmlns="http://www.w3.org/2000/svg">
<rect width="36" height="36" rx="8" fill="#4FA8E9"/>
<path d="M26.0774 21.3509C25.1114 22.3122 23.829 22.8416 22.4665 22.8417L22.4407 22.8416L13.3929 22.7973C10.5399 22.7973 8.08059 21.0736 7 18.6121V19.107C7 22.6352 9.87039 25.5056 13.3957 25.5056L22.4436 25.55C22.4512 25.55 22.4589 25.55 22.4665 25.55C23.6732 25.55 24.808 25.0817 25.6641 24.2298C26.5255 23.3726 27 22.2311 27 21.0158V20.1048C26.7608 20.5586 26.4516 20.9785 26.0774 21.3509Z" fill="white"/>
<path d="M7.58594 15.8127C7.58594 16.613 7.74848 17.376 8.04219 18.0705L9.51699 16.6652L10.3254 17.5136L8.62828 19.1307C9.6791 20.6375 11.4241 21.6254 13.3957 21.6254L14.6517 21.6315L19.2735 17.0097L20.1021 17.8384L16.3009 21.6395L22.4665 21.6697C23.517 21.6697 24.5059 21.2614 25.2508 20.5201C26.0009 19.7737 26.4141 18.7798 26.4141 17.7215C26.4141 16.8402 26.1266 16.002 25.5965 15.315L21.6568 19.2547L20.8282 18.4261L24.7525 14.5017C24.0986 14.0354 23.3188 13.7804 22.4996 13.7734L19.5127 13.7449L19.3572 13.4082C18.9135 12.4479 18.2145 11.6247 17.3358 11.0278C17.2436 10.9652 17.1496 10.9061 17.0544 10.849L14.1257 13.7245C15.0219 14.0078 15.6735 14.8469 15.6735 15.8355C15.6735 17.0561 14.6805 18.0491 13.4599 18.0491C12.2393 18.0491 11.2464 17.0561 11.2464 15.8355C11.2464 15.2106 11.5071 14.6457 11.9251 14.2429L15.9171 10.3233C15.4179 10.1551 14.8964 10.0546 14.3664 10.0267C14.0302 10.009 13.7046 10 13.3986 10C10.1935 9.99996 7.58594 12.6075 7.58594 15.8127Z" fill="white"/>
</svg>
