<svg width="36" height="36" viewBox="0 0 36 36" fill="none" xmlns="http://www.w3.org/2000/svg">
<rect width="36" height="36" rx="8" fill="#0CBA70"/>
<path d="M19.375 8C15.1128 10.4558 15.625 17.375 15.625 17.375C15.625 17.375 13.75 16.75 13.75 13.9375C11.513 15.2346 10 17.7278 10 20.5C10 24.6421 13.3579 28 17.5 28C21.6422 28 25 24.6421 25 20.5C25 14.4063 19.375 13.1562 19.375 8ZM18.1588 25.4157C16.6517 25.7915 15.1253 24.8744 14.7494 23.3672C14.3737 21.8601 15.2908 20.3336 16.798 19.9578C20.4366 19.0506 20.8926 17.0045 20.8926 17.0045C20.8926 17.0045 22.7071 24.2817 18.1588 25.4157Z" fill="white"/>
</svg>
