<svg width="36" height="36" viewBox="0 0 36 36" fill="none" xmlns="http://www.w3.org/2000/svg">
<rect width="36" height="36" rx="8" fill="#FFC144"/>
<path d="M18.3319 8.16672C18.1902 8.05559 18.0064 8 17.8227 8C17.6388 8 17.4551 8.05559 17.3135 8.16672C17.0512 8.3725 14.7515 10.2207 14.7515 11.724C14.7516 13.2273 17.0512 15.0755 17.3135 15.2812C17.4551 15.3924 17.6388 15.4479 17.8227 15.4479C18.0064 15.4479 18.1902 15.3924 18.3319 15.2812C18.5941 15.0755 20.8938 13.2273 20.8938 11.7241C20.8938 10.2208 18.5941 8.3725 18.3319 8.16672Z" fill="white"/>
<path d="M24.0723 14.138C24.0676 13.8201 23.7477 13.5632 23.3523 13.5591C23.3523 13.5591 23.3357 13.5589 23.3043 13.5589C22.9877 13.5589 22.3869 13.5698 21.6958 13.6363C21.4805 13.973 21.2129 14.3198 20.8928 14.6758C20.2299 15.4128 19.5447 15.9674 19.3504 16.1198C19.1198 16.3008 18.8476 16.4361 18.5518 16.52V19.1541C19.7421 19.1048 21.77 18.9013 22.7547 18.1097C24.0771 17.0467 24.0767 14.4326 24.0723 14.138Z" fill="white"/>
<path d="M16.2947 16.1198C16.1005 15.9674 15.4153 15.4128 14.7524 14.6758C14.4322 14.3198 14.1646 13.973 13.9493 13.6363C13.2583 13.5698 12.6574 13.5589 12.3407 13.5589C12.3094 13.5589 12.2928 13.5591 12.2928 13.5591C11.8974 13.5632 11.5774 13.8201 11.5727 14.138C11.5684 14.4326 11.5681 17.0467 12.8903 18.1097C13.875 18.9012 15.903 19.1048 17.0933 19.1541L17.0933 16.52C16.7975 16.4361 16.5253 16.3008 16.2947 16.1198Z" fill="white"/>
<path d="M15.2184 20.1605C13.7254 19.941 12.5954 19.5298 11.8595 18.9382C11.7595 18.8579 11.664 18.7714 11.5723 18.6793C11.5756 19.2521 11.6666 21.5639 12.8903 22.5477C13.875 23.3392 15.9028 23.5428 17.0931 23.5921L17.0932 20.3274C16.5757 20.308 15.9115 20.2625 15.2184 20.1605Z" fill="white"/>
<path d="M23.7857 18.9384C23.0498 19.5299 21.9197 19.9412 20.4267 20.1606C19.7336 20.2626 19.0693 20.3081 18.5519 20.3275L18.5518 23.5923C19.742 23.543 21.7701 23.3394 22.7549 22.5478C23.9785 21.5641 24.0695 19.2524 24.0728 18.6795C23.9812 18.7716 23.8855 18.8581 23.7857 18.9384Z" fill="white"/>
<path d="M17.8619 24.7789C17.8456 24.7789 17.8327 24.7788 17.8228 24.7788C17.813 24.7788 17.8001 24.7789 17.7838 24.7789C17.6087 24.7789 17.3725 24.776 17.0938 24.7655L17.0938 27.4141C17.0938 27.7377 17.4201 28 17.8227 28C18.2252 28 18.5516 27.7377 18.5516 27.4141L18.5516 24.7655C18.273 24.776 18.0369 24.7789 17.8619 24.7789Z" fill="white"/>
</svg>
