<svg width="20" height="20" viewBox="0 0 20 20" fill="none" xmlns="http://www.w3.org/2000/svg">
<path d="M9.99951 0C5.93986 0 2.63672 3.30314 2.63672 7.3632C2.63672 8.42222 2.85348 9.43334 3.28065 10.3687C5.12155 14.3971 8.65107 18.6501 9.68921 19.8575C9.76699 19.9478 9.88038 19.9998 9.99971 19.9998C10.119 19.9998 10.2324 19.9478 10.3102 19.8575C11.3479 18.6503 14.8775 14.3975 16.719 10.3687C17.1464 9.43334 17.3629 8.42222 17.3629 7.3632C17.3625 3.30314 14.0594 0 9.99951 0ZM9.99951 11.1877C7.89068 11.1877 6.17484 9.47182 6.17484 7.36299C6.17484 5.25396 7.89068 3.53812 9.99951 3.53812C12.1083 3.53812 13.8242 5.25396 13.8242 7.36299C13.8244 9.47182 12.1085 11.1877 9.99951 11.1877Z" fill="#0CBA70"/>
<circle cx="10" cy="7.5" r="6" fill="white"/>
<path d="M13.9885 6.15808C13.9609 6.08024 13.8876 6.02352 13.7993 6.01176L11.3193 5.68119L10.2102 3.61983C10.1707 3.54645 10.0892 3.5 10 3.5C9.91079 3.5 9.82933 3.54645 9.78984 3.61983L8.68066 5.68119L6.20067 6.01176C6.1124 6.02352 6.03904 6.08024 6.01148 6.15807C5.9839 6.23591 6.0069 6.32134 6.07079 6.37845L7.86529 7.983L7.44173 10.2487C7.42663 10.3293 7.46279 10.4108 7.53496 10.459C7.57579 10.4862 7.62415 10.5 7.67274 10.5C7.71005 10.5 7.74749 10.4918 7.78177 10.4753L10 9.40558L12.2181 10.4753C12.2971 10.5134 12.3928 10.507 12.465 10.4589C12.5371 10.4108 12.5733 10.3293 12.5582 10.2487L12.1345 7.983L13.9292 6.37844C13.9931 6.32134 14.0161 6.23591 13.9885 6.15808Z" fill="#0CBA70"/>
</svg>
