<svg width="27" height="18" viewBox="0 0 27 18" fill="none" xmlns="http://www.w3.org/2000/svg">
<path d="M24.6323 12.0762C23.8298 7.36397 20.1565 3.6198 15.4802 2.71287C15.4877 2.64202 15.4992 2.57072 15.4992 2.50031C15.4992 1.27941 14.5059 0.286133 13.2851 0.286133C12.0642 0.286133 11.0709 1.27941 11.0709 2.50031C11.0709 2.57072 11.0819 2.64202 11.0899 2.71287C6.41358 3.6198 2.74026 7.36397 1.93785 12.0762C1.01232 12.6 0 13.371 0 14.2359C0 16.4877 6.86926 18 13.2851 18C19.7008 18 26.5701 16.4877 26.5701 14.2359C26.5701 13.371 25.5578 12.6 24.6323 12.0762ZM11.9592 2.57692C11.9574 2.55123 11.9565 2.52555 11.9565 2.50075C11.9565 1.7683 12.5526 1.17225 13.2851 1.17225C14.0175 1.17225 14.6136 1.7683 14.6136 2.50075C14.6136 2.52599 14.6127 2.55123 14.6109 2.57692C14.5901 2.5747 14.5693 2.57382 14.5489 2.5716C14.3966 2.55478 14.2433 2.54282 14.0892 2.53219C14.0326 2.52821 13.9763 2.52245 13.9196 2.51935C13.7097 2.50784 13.4985 2.50119 13.2855 2.50119C13.0725 2.50119 12.8613 2.50784 12.6514 2.51935C12.5947 2.52245 12.5384 2.52821 12.4817 2.53219C12.3276 2.54282 12.1744 2.55522 12.0221 2.5716C12.0008 2.57382 11.98 2.57426 11.9592 2.57692ZM11.1267 4.50989C11.8272 4.35224 12.5513 4.27209 13.2789 4.27209C13.2806 4.27209 13.2828 4.27209 13.2851 4.27209C13.5295 4.27209 13.7279 4.47048 13.7279 4.71537C13.7279 4.95981 13.5295 5.15776 13.2851 5.15776C13.2833 5.15776 13.2811 5.15776 13.2793 5.15776C12.6168 5.15776 11.9588 5.23039 11.3215 5.37387C11.2888 5.38139 11.256 5.38449 11.2237 5.38449C11.0213 5.38449 10.8384 5.245 10.7919 5.03908C10.7383 4.80039 10.888 4.56348 11.1267 4.50989ZM8.48029 5.55587C8.69108 5.43143 8.9621 5.50096 9.08698 5.71131C9.21185 5.92209 9.14233 6.19355 8.93154 6.31799C6.84446 7.55439 5.32376 9.79912 4.86366 12.3228C4.82469 12.5363 4.63825 12.686 4.42835 12.686C4.40178 12.686 4.37521 12.6837 4.34864 12.6784C4.10818 12.6346 3.94832 12.4043 3.99216 12.1634C4.49832 9.39126 6.17622 6.92113 8.48029 5.55587ZM13.2851 17.1143C5.71434 17.1143 0.88567 15.2238 0.88567 14.2359C0.88567 14.0663 1.09557 13.6925 1.79968 13.205C1.79791 13.2302 1.7988 13.255 1.79702 13.2802C1.78197 13.5229 1.77134 13.7674 1.77134 14.0145V14.3634L2.11099 14.4453C5.76615 15.3226 9.52582 15.7672 13.2851 15.7672C17.0443 15.7672 20.8039 15.3226 24.4591 14.4453L24.7988 14.3634V14.0145C24.7988 13.7674 24.7881 13.5234 24.7731 13.2802C24.7713 13.255 24.7722 13.2302 24.7704 13.205C25.4745 13.6925 25.6844 14.0663 25.6844 14.2359C25.6844 15.2238 20.8558 17.1143 13.2851 17.1143Z" fill="#9BAEBC"/>
</svg>
