<svg width="32" height="32" viewBox="0 0 32 32" fill="none" xmlns="http://www.w3.org/2000/svg">
<circle cx="16" cy="16" r="16" fill="#0CBA70"/>
<path d="M22.0742 11.0742L13.5 19.6484L9.92578 16.0742C9.75651 15.918 9.55469 15.8398 9.32031 15.8398C9.09896 15.8398 8.91016 15.918 8.75391 16.0742C8.58464 16.2435 8.5 16.4453 8.5 16.6797C8.5 16.901 8.58464 17.0898 8.75391 17.2461L12.9141 21.4258C13.0703 21.582 13.2656 21.6602 13.5 21.6602C13.7344 21.6602 13.9297 21.582 14.0859 21.4258L23.2461 12.2461C23.4154 12.0898 23.5 11.901 23.5 11.6797C23.5 11.4453 23.4154 11.2435 23.2461 11.0742C23.0898 10.918 22.8945 10.8398 22.6602 10.8398C22.4388 10.8398 22.2435 10.918 22.0742 11.0742Z" fill="white"/>
</svg>
