<svg width="16" height="12" viewBox="0 0 16 12" fill="none" xmlns="http://www.w3.org/2000/svg">
<path d="M14.0742 1.07422L5.5 9.64844L1.92578 6.07422C1.75651 5.91797 1.55469 5.83984 1.32031 5.83984C1.09896 5.83984 0.910156 5.91797 0.753906 6.07422C0.584635 6.24349 0.5 6.44531 0.5 6.67969C0.5 6.90104 0.584635 7.08984 0.753906 7.24609L4.91406 11.4258C5.07031 11.582 5.26562 11.6602 5.5 11.6602C5.73438 11.6602 5.92969 11.582 6.08594 11.4258L15.2461 2.24609C15.4154 2.08984 15.5 1.90104 15.5 1.67969C15.5 1.44531 15.4154 1.24349 15.2461 1.07422C15.0898 0.917969 14.8945 0.839844 14.6602 0.839844C14.4388 0.839844 14.2435 0.917969 14.0742 1.07422Z" fill="white"/>
</svg>
