<svg id="color" enable-background="new 0 0 24 24" height="512" viewBox="0 0 24 24" width="512" xmlns="http://www.w3.org/2000/svg"><path d="m23.25 15c-.414 0-.75-.336-.75-.75 0-2.895-2.355-5.25-5.25-5.25h-7.25v3.25c0 .66-.793.994-1.268.542l-5.5-5.25c-.148-.141-.232-.337-.232-.542s.084-.401.232-.542l5.5-5.25c.476-.455 1.268-.116 1.268.542v3.25h6.25c4.273 0 7.75 3.477 7.75 7.75v1.5c0 .414-.336.75-.75.75z" fill="#2196f3"/><path d="m21.441 7h-18.441c0 .205.084.401.232.542l5.5 5.25c.15.143.333.208.512.208.386 0 .756-.299.756-.75v-3.25h7.25c2.895 0 5.25 2.355 5.25 5.25 0 .414.336.75.75.75s.75-.336.75-.75v-1.5c0-2.279-.988-4.331-2.559-5.75z" fill="#1d83d4"/><path d="m14 22.25v-3.25h-6.25c-4.273 0-7.75-3.477-7.75-7.75v-1.5c0-.414.336-.75.75-.75s.75.336.75.75c0 2.895 2.355 5.25 5.25 5.25h7.25v-3.25c0-.658.791-.999 1.268-.542l5.5 5.25c.148.141.232.337.232.542s-.084.401-.232.542l-5.5 5.25c-.476.455-1.268.116-1.268-.542z" fill="#2196f3"/><path d="m21 17h-18.441c1.375 1.243 3.196 2 5.191 2h6.25v3.25c0 .45.37.75.756.75.179 0 .361-.064.512-.208l5.5-5.25c.148-.141.232-.337.232-.542z" fill="#1d83d4"/></svg>